<svg width="1161" height="581" viewBox="0 0 1161 581" fill="none" xmlns="http://www.w3.org/2000/svg">
<ellipse cx="602.897" cy="121.404" rx="9" ry="11" transform="rotate(-9.15598 602.897 121.404)" fill="#DC9402"/>
<ellipse cx="590.581" cy="187.293" rx="9" ry="11" transform="rotate(-8.82442 590.581 187.293)" fill="#DC9402"/>
<ellipse cx="583.581" cy="264.293" rx="9" ry="11" transform="rotate(-8.82442 583.581 264.293)" fill="#DC9402"/>
<ellipse cx="584.581" cy="335.293" rx="9" ry="11" transform="rotate(-8.82442 584.581 335.293)" fill="#DC9402"/>
<ellipse cx="577.581" cy="408.293" rx="9" ry="11" transform="rotate(-8.82442 577.581 408.293)" fill="#DC9402"/>
<ellipse cx="554.062" cy="465.618" rx="9" ry="11" transform="rotate(176.795 554.062 465.618)" fill="#DC9402"/>
<ellipse cx="11.1819" cy="68.2654" rx="9" ry="11" transform="rotate(-7.39419 11.1819 68.2654)" fill="#DC9402"/>
<ellipse cx="627.372" cy="67.4597" rx="9" ry="11" transform="rotate(-9.15598 627.372 67.4597)" fill="#DC9402"/>
<ellipse cx="1149.56" cy="511.683" rx="9" ry="11" transform="rotate(170.101 1149.56 511.683)" fill="#DC9402"/>
<ellipse cx="524.126" cy="516.733" rx="9" ry="11" transform="rotate(176.795 524.126 516.733)" fill="#DC9402"/>
<ellipse cx="224.249" cy="75.5056" rx="9" ry="11" transform="rotate(-7.39419 224.249 75.5056)" fill="#DC9402"/>
<ellipse cx="840.562" cy="68.1459" rx="9" ry="11" transform="rotate(-9.15598 840.562 68.1459)" fill="#DC9402"/>
<ellipse cx="936.377" cy="513.76" rx="9" ry="11" transform="rotate(170.101 936.377 513.76)" fill="#DC9402"/>
<ellipse cx="303.008" cy="504.851" rx="9" ry="11" transform="rotate(-174.528 303.008 504.851)" fill="#DC9402"/>
<ellipse cx="249.968" cy="119.591" rx="9" ry="11" transform="rotate(-7.39419 249.968 119.591)" fill="#DC9402"/>
<ellipse cx="249.968" cy="191.109" rx="9" ry="11" transform="rotate(-7.39419 249.968 191.109)" fill="#DC9402"/>
<ellipse cx="252.341" cy="252.109" rx="9" ry="11" transform="rotate(-7.39419 252.341 252.109)" fill="#DC9402"/>
<ellipse cx="255.341" cy="309.109" rx="9" ry="11" transform="rotate(-7.39419 255.341 309.109)" fill="#DC9402"/>
<ellipse cx="255.341" cy="381.109" rx="9" ry="11" transform="rotate(-7.39419 255.341 381.109)" fill="#DC9402"/>
<ellipse cx="867.623" cy="111.42" rx="9" ry="11" transform="rotate(-9.15598 867.623 111.42)" fill="#DC9402"/>
<ellipse cx="881.636" cy="159.335" rx="9" ry="11" transform="rotate(-9.15598 881.636 159.335)" fill="#DC9402"/>
<ellipse cx="885.636" cy="220.335" rx="9" ry="11" transform="rotate(-9.15598 885.636 220.335)" fill="#DC9402"/>
<ellipse cx="878.636" cy="267.335" rx="9" ry="11" transform="rotate(-9.15598 878.636 267.335)" fill="#DC9402"/>
<ellipse cx="885.636" cy="313.335" rx="9" ry="11" transform="rotate(-9.15598 885.636 313.335)" fill="#DC9402"/>
<ellipse cx="881.636" cy="368.335" rx="9" ry="11" transform="rotate(-9.15598 881.636 368.335)" fill="#DC9402"/>
<ellipse cx="888.636" cy="418.335" rx="9" ry="11" transform="rotate(-9.15598 888.636 418.335)" fill="#DC9402"/>
<ellipse cx="908.757" cy="470.84" rx="9" ry="11" transform="rotate(170.101 908.757 470.84)" fill="#DC9402"/>
<ellipse cx="275.601" cy="450.529" rx="9" ry="11" transform="rotate(176.795 275.601 450.529)" fill="#DC9402"/>
<ellipse cx="176.29" cy="33.7336" rx="9" ry="11" transform="rotate(-7.39419 176.29 33.7336)" fill="#DC9402"/>
<ellipse cx="791.341" cy="27.8681" rx="9" ry="11" transform="rotate(-9.15598 791.341 27.8681)" fill="#DC9402"/>
<ellipse cx="986.117" cy="553.396" rx="9" ry="11" transform="rotate(170.101 986.117 553.396)" fill="#DC9402"/>
<ellipse cx="349.601" cy="547.529" rx="9" ry="11" transform="rotate(176.795 349.601 547.529)" fill="#DC9402"/>
<ellipse cx="59.9411" cy="33.8774" rx="9" ry="11" transform="rotate(-7.39419 59.9411 33.8774)" fill="#DC9402"/>
<ellipse cx="675.051" cy="31.5886" rx="9" ry="11" transform="rotate(-9.15598 675.051 31.5886)" fill="#DC9402"/>
<ellipse cx="1102.35" cy="548.169" rx="9" ry="11" transform="rotate(170.101 1102.35 548.169)" fill="#DC9402"/>
<ellipse cx="472.985" cy="547.468" rx="9" ry="11" transform="rotate(176.795 472.985 547.468)" fill="#DC9402"/>
<ellipse cx="120.445" cy="16.4324" rx="9" ry="11" transform="rotate(-7.39419 120.445 16.4324)" fill="#DC9402"/>
<ellipse cx="734.99" cy="12.292" rx="9" ry="11" transform="rotate(-9.15598 734.99 12.292)" fill="#DC9402"/>
<ellipse cx="1042.66" cy="568.241" rx="9" ry="11" transform="rotate(170.101 1042.66 568.241)" fill="#DC9402"/>
<ellipse cx="411.369" cy="560.447" rx="9" ry="11" transform="rotate(176.795 411.369 560.447)" fill="#DC9402"/>
</svg>
